<svg width="11" height="12" viewBox="0 0 11 12" fill="none" xmlns="http://www.w3.org/2000/svg">
<path d="M3.64447 4.04041C3.64447 3.71416 3.9206 3.44969 4.26122 3.44969C4.60184 3.44969 4.87796 3.71416 4.87796 4.04041V9.65311C4.87796 9.97936 4.60184 10.2438 4.26122 10.2438C3.9206 10.2438 3.64447 9.97936 3.64447 9.65311V4.04041Z" fill="#181B32"/>
<path d="M6.73873 3.44969C6.39811 3.44969 6.12198 3.71416 6.12198 4.04041V9.65311C6.12198 9.97936 6.39811 10.2438 6.73873 10.2438C7.07935 10.2438 7.35547 9.97936 7.35547 9.65311V4.04041C7.35547 3.71416 7.07935 3.44969 6.73873 3.44969Z" fill="#181B32"/>
<path fill-rule="evenodd" clip-rule="evenodd" d="M3.15974 1.69066V1.31614C3.15974 0.598127 3.74129 0 4.48259 0H6.5173C7.25836 0 7.84015 0.596704 7.84015 1.31614V1.69066H10.3833C10.7239 1.69066 11 1.95514 11 2.28139C11 2.60764 10.7239 2.87211 10.3833 2.87211H10.2261L9.76515 10.2411C9.70976 11.1984 8.96094 12 8.02688 12H2.97312C2.03998 12 1.29097 11.1992 1.23501 10.2437L0.77392 2.87211H0.616746C0.276126 2.87211 0 2.60764 0 2.28139C0 1.95514 0.276126 1.69066 0.616746 1.69066H3.15974ZM6.60666 1.69066V1.31614C6.60666 1.23183 6.55755 1.18145 6.5173 1.18145H4.48259C4.44293 1.18145 4.39323 1.23257 4.39323 1.31614V1.69066H6.60666ZM2.00962 2.87211H8.99038L8.53371 10.1731C8.51215 10.5455 8.25711 10.8185 8.02688 10.8185H2.97312C2.7433 10.8185 2.48812 10.5457 2.46642 10.1753L2.00962 2.87211Z" fill="#181B32"/>
</svg>
